<?xml version="1.0" encoding="utf-8"?>
<!-- Generator: Adobe Illustrator 21.0.0, SVG Export Plug-In . SVG Version: 6.00 Build 0)  -->
<svg version="1.1" id="Layer_1" xmlns="http://www.w3.org/2000/svg" xmlns:xlink="http://www.w3.org/1999/xlink" x="0px" y="0px"
	 viewBox="0 0 380 380" style="enable-background:new 0 0 380 380;" xml:space="preserve">
<style type="text/css">
	.st1{fill:#F2F2F2;}
</style>
<path d="M140.1,120.5l-3.5,6h0.5l3.5-6H140.1z M137.1,253.5h-0.5l3.5,6h0.5L137.1,253.5z M242.9,253.5l-3.5,6h0.5l3.5-6H242.9z
	 M239.9,120.5h-0.5l3.5,6h0.5L239.9,120.5z"/>
<g>
	<polygon class="st0" points="140.6,259.5 145.6,268 145.1,268 140.1,259.5 136.5,253.5 99.1,190 136.5,126.5 140.1,120.5
		145.1,112 145.6,112 140.6,120.5 137.1,126.5 99.6,190 137.1,253.5 	"/>
	<polygon class="st0" points="280.9,190 243.5,253.5 239.9,259.5 239.4,259.5 242.9,253.5 280.4,190 243,126.5 239.4,120.5
		234.4,112 234.9,112 239.9,120.5 243.5,126.5 	"/>
</g>
<g>
	<path d="M317.2,120.5h-37.8l-6.8-11.5H107.4l-6.8,11.5H62.8L45,138.3v103.5l17.8,17.8h37.8l6.8,11.5h165.2l6.8-11.5h37.8l17.8-17.8
		V138.3L317.2,120.5z M97.1,253.5H65.2L51,239.3v-98.5l14.2-14.2h31.8L59.6,190L97.1,253.5z M166,268h-20.9l-5-8.5l-3.5-6L99.1,190
		l37.4-63.5l3.5-6l5-8.5H166V268z M196,268h-12V112h12V268z M243.5,253.5l-3.5,6h-0.5l-5,8.5H214V112h20.9l5,8.5l3.5,6l37.4,63.5
		L243.5,253.5z M329,239.3l-14.2,14.2h-31.8l37.4-63.5L283,126.5h31.8l14.2,14.2V239.3z"/>
	<polygon points="140.6,259.5 145.6,268 145.1,268 140.1,259.5 136.5,253.5 99.1,190 136.5,126.5 140.1,120.5 145.1,112 145.6,112
		140.6,120.5 137.1,126.5 99.6,190 137.1,253.5 	"/>
	<polygon points="280.9,190 243.5,253.5 239.9,259.5 239.4,259.5 242.9,253.5 280.4,190 243,126.5 239.4,120.5 234.4,112 234.9,112
		239.9,120.5 243.5,126.5 	"/>
</g>
</svg>
