<?xml version="1.0" encoding="utf-8"?>
<!-- Generator: Adobe Illustrator 21.0.0, SVG Export Plug-In . SVG Version: 6.00 Build 0)  -->
<svg version="1.1" id="Layer_1" xmlns="http://www.w3.org/2000/svg" xmlns:xlink="http://www.w3.org/1999/xlink" x="0px" y="0px"
	 viewBox="0 0 379.6 380" style="enable-background:new 0 0 379.6 380;" xml:space="preserve">
<path d="M320.6,185.5h-60V59l-6-6H125l-6,6v126.5H59l-6,6V321l6,6h129.5l1.2-1.2l1.2,1.2h129.6l6-6V191.5L320.6,185.5z M316.6,195.5
	v31.2l-31.2-31.2H316.6z M226.6,195.5L195,227.1v-31.5H226.6z M184.6,195.5v31.2l-31.2-31.2H184.6z M219.1,184.6l31.5-31.6v31.6
	H219.1z M250.6,63v31.2L219.4,63H250.6z M129,63h31.5L129,94.5V63z M129,116.2L182.2,63h15.6l52.8,52.8v15.5h-0.1v0l-41.3,41.3
	l-11.8,11.8h-15.2l-11.8-11.8L129,131.4V116.2z M129,152.9l31.5,31.6H129V152.9z M63,195.5h31.5L63,227.1V195.5z M63,317.1v-31.6
	l31.5,31.6H63z M184.6,317.1h-31.5l31.5-31.6V317.1z M184.7,263.9L184.7,263.9L184.7,263.9l-41.4,41.3l-11.8,11.8h-15.2l-11.8-11.8
	L63,263.9v-15.2l53.1-53.2h15.6l52.8,52.8V263.9z M195,317.1v-31.6l31.5,31.6H195z M316.6,317.1h-31.5l31.5-31.6V317.1z
	 M316.7,263.9L316.7,263.9L316.7,263.9l-41.4,41.3l-11.8,11.8h-15.2l-11.8-11.8L195,263.9v-15.2l53.1-53.2h15.6l52.8,52.8V263.9z"/>
</svg>
