<?xml version="1.0" encoding="utf-8"?>
<!-- Generator: Adobe Illustrator 21.0.0, SVG Export Plug-In . SVG Version: 6.00 Build 0)  -->
<svg version="1.1" id="Layer_1" xmlns="http://www.w3.org/2000/svg" xmlns:xlink="http://www.w3.org/1999/xlink" x="0px" y="0px"
	 viewBox="0 0 195.8 193.5" style="enable-background:new 0 0 195.8 193.5;" xml:space="preserve">
<path d="M193.7,52.5L160.4,0h-125L2.1,52.5L0,55l1.2,2l95.7,136.5l0.3-0.5l0.2,0.5l0.4-1.4L194.6,57l1.2-2L193.7,52.5z M55.7,57.5
	h84.7l-43,116.8L55.7,57.5z M147.2,5.5L98.4,47L48.8,5.5H147.2z M154.1,6.2L141.9,52h-41.7L154.1,6.2z M96.6,52H54.2L41.7,6.1
	L96.6,52z M147,52l12.2-45.6L186.8,52H147z M36.6,6.4L49,52H9L36.6,6.4z M7.4,57.5h43.1L93,177.3L7.4,57.5z M102.4,174.7l43.1-117.2
	h42.9L102.4,174.7z"/>
</svg>
