<?xml version="1.0" encoding="utf-8"?>
<!-- Generator: Adobe Illustrator 21.0.0, SVG Export Plug-In . SVG Version: 6.00 Build 0)  -->
<svg version="1.1" id="Layer_1" xmlns="http://www.w3.org/2000/svg" xmlns:xlink="http://www.w3.org/1999/xlink" x="0px" y="0px"
	 viewBox="-140 0 500.6 441" style="enable-background:new 0 0 210.6 441;" xml:space="preserve">
<path d="M106.1,13.9h-1.6h-54L36.6,0L10.2,26.4V108l19.4,26h-0.2v52.8L0,216.3v97.9h16.4v16.2h2.3c-2.3,6.1-3.5,15.1-3.5,28
	c0,41.5,20.2,74.6,21.1,75.9l4.1,6.7l4.1-6.7c0.8-1.4,21.1-34.5,21.1-75.9c0-13.3-0.8-22.1-2.3-28h1.2v-16.2h39.9h1.6H146v16.2h1.2
	c-1.8,5.9-2.3,14.7-2.3,28c0,41.5,20.2,74.6,21.1,75.9l4.1,6.7l4.1-6.7c0.8-1.4,21.1-34.5,21.1-75.9c0-12.9-1-21.9-3.5-28h2.3v-16.2
	h16.4v-97.9l-29.4-29.4v-52.8h-0.2l19.4-26V26.4L173.8,0.2l-13.9,13.9h-53.8V13.9z M52.8,330.6c1.6,2.5,2.9,9.6,2.9,28
	c0,27.2-9.6,51.3-15.5,63c-5.7-11.7-15.5-35.6-15.5-63c0-19.2,2.5-25.8,4.9-28H52.8z M180.7,330.6c2.2,2.2,4.9,8.8,4.9,28
	c0,27.4-9.6,51.3-15.5,63c-5.7-11.7-15.5-35.8-15.5-63c0-18.2,1.6-25.4,2.9-28H180.7z"/>
</svg>
