<?xml version="1.0" encoding="utf-8"?>
<!-- Generator: Adobe Illustrator 21.0.0, SVG Export Plug-In . SVG Version: 6.00 Build 0)  -->
<svg version="1.1" id="Layer_1" xmlns="http://www.w3.org/2000/svg" xmlns:xlink="http://www.w3.org/1999/xlink" x="0px" y="0px"
	 viewBox="-10 -150 517 517" style="enable-background:new 0 0 517 230;" xml:space="preserve">
<path d="M482,45.7c0.4-2.7-0.4-5-1.9-5.4c-1.5-0.4-3.1,1.2-4.2,3.5l-14.2-4.6c0.4-3.1-0.8-5.8-2.3-6.5c-1.5-0.4-3.8,1.2-5,3.8
	l-12.7-3.8c0-3.8-0.8-6.9-3.1-7.3c-1.9-0.4-4.2,1.5-6.2,4.6l-11.5-3.5c0-4.2-1.2-7.7-3.5-8.5c-2.3-0.8-5,1.5-6.9,5l-10-3.1
	c0-5-1.2-8.8-3.8-9.2c-2.7-0.8-5.8,1.5-7.7,5.8l-8.5-2.7c0-5.4-1.5-9.6-4.6-10.4s-6.2,1.9-8.8,6.2l-10.8-3.5l-2.7-0.8l-3.5,1.5
	l-80.3,31.5l-13.5-13.8l-3.8-3.8H75v128.4H51.5C23.1,149.1,0,167.2,0,189.8c0,22.3,23.1,40.7,51.5,40.7H329
	c28.4,0,51.5-18.1,51.5-40.7c0-22.3-23.1-40.7-51.5-40.7h-30.4V67.6l-2.3-2.3L355.6,23l7.3,1.5c0,5,1.5,8.5,4.6,9.2
	c3.1,0.8,6.2-1.9,8.8-6.5l8.8,1.9c0,4.6,1.5,8.1,3.8,8.5c2.7,0.8,5.8-1.9,8.1-6.2l10.4,1.9c0,4.2,1.2,7.3,3.5,7.7
	c2.3,0.8,5.4-1.5,7.3-5.8l11.5,2.3c0,3.8,1.2,6.5,3.1,7.3c2.3,0.8,4.6-1.5,6.5-5.4l13.1,2.7c-0.4,3.5,0.8,6.2,2.3,6.5
	c1.9,0.4,4.2-1.5,5.4-5l14.6,3.1c-0.4,3.1,0.4,5.4,1.9,5.8c1.5,0.4,3.5-1.5,4.6-4.6l35.7,7.3L482,45.7z M50.7,214.1
	c-13.5,0-24.2-10.8-24.2-24.2s10.8-24.2,24.2-24.2S75,176.4,75,189.8C75,202.9,63.8,214.1,50.7,214.1z M106.1,214.1
	c-13.5,0-24.2-10.8-24.2-24.2s10.8-24.2,24.2-24.2s24.2,10.8,24.2,24.2C130.7,202.9,119.5,214.1,106.1,214.1z M161.8,214.1
	c-13.5,0-24.2-10.8-24.2-24.2s10.8-24.2,24.2-24.2s24.2,10.8,24.2,24.2C186,202.9,175.3,214.1,161.8,214.1z M217.6,214.1
	c-13.5,0-24.2-10.8-24.2-24.2s10.8-24.2,24.2-24.2s24.2,10.8,24.2,24.2C241.8,202.9,231,214.1,217.6,214.1z M273.3,214.1
	c-13.5,0-24.2-10.8-24.2-24.2s10.8-24.2,24.2-24.2c13.5,0,24.2,10.8,24.2,24.2C297.5,202.9,286.8,214.1,273.3,214.1z M329,165.2
	c13.5,0,24.2,10.8,24.2,24.2s-10.8,24.2-24.2,24.2c-13.5,0-24.2-10.8-24.2-24.2S316,165.2,329,165.2z M86.1,33h161.1l10.4,10.4
	l29.2,29.2v74.6h-201V33H86.1z"/>
</svg>
