<?xml version="1.0" encoding="utf-8"?>
<!-- Generator: Adobe Illustrator 21.0.0, SVG Export Plug-In . SVG Version: 6.00 Build 0)  -->
<svg version="1.1" id="Layer_1" xmlns="http://www.w3.org/2000/svg" xmlns:xlink="http://www.w3.org/1999/xlink" x="0px" y="0px"
	 viewBox="0 0 381 381" style="enable-background:new 0 0 381 381;" xml:space="preserve">
<g>
	<path d="M115.8,64L64,115.8v149.4l51.8,51.8h145.5v0.2l0.2-0.2h3.4l51.8-51.8V115.8L265.2,64H115.8z M257.4,71.3L191,183.2
		L124.8,71.3H257.4z M71.3,256.2V124.1l112.4,66.4L71.3,256.2z M124.1,309.7l66.7-112.2l66.2,112.2H124.1z M309.7,256.4L198,190.5
		l111.7-65.4V256.4z"/>
	<path d="M343.8,118.2V100L281,37.2h-19.5C255.7,16.1,225.5,0,189.3,0c-36.5,0-66.7,16.1-72.3,37.2h-17L37.2,100v18.2
		C16.1,124.1,0,154.2,0,190.5c0,36.5,16.1,66.7,37.2,72.3V281l62.8,62.8h17c5.8,21.2,36,37.2,72.3,37.2c36.5,0,66.7-16.1,72.3-37.2
		H281l62.8-62.8v-18.2c21.2-5.8,37.2-36,37.2-72.3S364.9,124.1,343.8,118.2z M336.5,117.3L336.5,117.3V264l0,0v14.1l-58.4,58.4
		H102.9l-58.4-58.4v-14.4l0,0V117l0,0v-14.1l58.4-58.4h175.2l58.4,58.4V117.3z"/>
</g>
</svg>
