<?xml version="1.0" encoding="utf-8"?>
<!-- Generator: Adobe Illustrator 21.0.0, SVG Export Plug-In . SVG Version: 6.00 Build 0)  -->
<svg version="1.1" id="Layer_1" xmlns="http://www.w3.org/2000/svg" xmlns:xlink="http://www.w3.org/1999/xlink" x="0px" y="0px"
	 viewBox="0 -150 459 439" style="enable-background:new 0 0 459 239;" xml:space="preserve">
<g>
	<path d="M212.9,34.1c4.8-0.7,9-0.7,13.8-2.1c-4.8-0.7-9-1.4-13.8-2.1c-4.8-0.7-9-0.7-13.8-0.7c-9-0.7-18.7-0.7-27.7-0.7l0,0
		c-1.4,0-2.8,0.7-3.5,2.8c-4.8,16.6-9,33.2-11.8,50.5c6.9-15.2,12.4-30.4,17.3-45.6c8.3,0,16.6,0,25.6-0.7
		C203.9,34.8,208,34.8,212.9,34.1z"/>
	<path d="M98.1,138.5c-4.8-0.7-9-0.7-13.8-0.7c-9-0.7-18.7-0.7-27.7-0.7l0,0c-1.4,0-2.8,0.7-3.5,2.8c-4.8,16.6-9,33.2-11.8,50.5
		c6.9-15.2,12.4-30.4,17.3-45.6c8.3,0,16.6,0,25.6-0.7c4.8,0,9-0.7,13.8-0.7c4.8-0.7,9-0.7,13.8-2.1
		C107.8,139.9,102.9,139.2,98.1,138.5z"/>
	<path d="M327.7,138.5c-4.8-0.7-9-0.7-13.8-0.7c-9-0.7-18.7-0.7-27.7-0.7l0,0c-1.4,0-2.8,0.7-3.5,2.8c-4.8,16.6-9,33.2-11.8,50.5
		c6.9-15.2,12.4-30.4,17.3-45.6c8.3,0,16.6,0,25.6-0.7c4.8,0,9-0.7,13.8-0.7c4.8-0.7,9-0.7,13.8-2.1
		C337.3,139.9,332.5,139.2,327.7,138.5z"/>
	<path d="M458.3,220.8l-31.1-100.9c-2.1-5.5-6.9-9.7-13.1-9.7h-71.2L312.4,12c-2.1-5.5-6.9-9.7-13.1-9.7H159.6
		c-6.2,0-11.8,4.1-13.1,9.7l-30.4,98.2H44.9c-6.2,0-11.8,4.1-13.1,9.7L0.6,220.8c-2.8,9,4.1,18,13.1,18h201.9c9,0,15.9-9,13.1-18
		l-27.7-89.9h56.7l-27.7,89.9c-2.8,9,4.1,18,13.1,18h201.9C454.9,238.8,461.1,229.1,458.3,220.8z M164.5,22.4h129.3l27,87.1h-46.3
		h-89.9h-46.3L164.5,22.4z M206,218H22.7l27-87.1h78.8H179L206,218z M253,218l27-87.1h50.5h78.8l27,87.1H253z"/>
</g>
</svg>
