<?xml version="1.0" encoding="utf-8"?>
<!-- Generator: Adobe Illustrator 21.0.0, SVG Export Plug-In . SVG Version: 6.00 Build 0)  -->
<svg version="1.1" id="Layer_1" xmlns="http://www.w3.org/2000/svg" xmlns:xlink="http://www.w3.org/1999/xlink" x="0px" y="0px"
	 viewBox="0 -150 572 551.4" style="enable-background:new 0 0 572 281.4;" xml:space="preserve">
<g>
	<path d="M545.4,50.2l-41.8,7.1L451.4,5.2l-1.1-1.1l-2,0.6L305.4,43.9l-1.1,0.3l-0.9-0.6l-0.6,0.9l-1.1,0.3l-0.6,1.1l-34,59.3h-26.9
		v21.2h-4.2V63.2h-48V0H88.9v63.2H42.5v63.2H33v68.3c-19,4.9-33,22.2-33,42.6c0,24.2,19.8,44,44,44h314.5c24.2,0,44-19.8,44-44
		s-19.8-44-44-44h-3.1v-88.1h-33.8l11.5-20l101.6-27.8l34.4,34.4l-7.1,41.8l26.4,26.4l7.9-7.7l-22.5-22.5l7.5-43.7l16.7-16.7
		l43.7-7.5l22.5,22.5l7.7-7.9L545.4,50.2z M439.9,56L439.9,56L439.9,56L439.9,56z M97.5,8.8h81.8v54.6H97.5V8.8z M463.5,49.4
		L455.9,22l38.5,38.5l-22.2,22.2l-28-28L463.5,49.4z M445.1,14.6l7.9,28.8L339.1,74.9l5-8.8l-28-16.2L445.1,14.6z M311.6,105.2
		h-34.4l29.3-50.8l25.9,14.9L311.6,105.2z M51.1,71.9h81.8v54.6H51.1V71.9z M227.3,126.4h-81.8V71.9h81.8V126.4z M41.7,135.1h194.7
		v58.2H41.7V135.1z M249,113.9h97.8v79.4H245.3h3.9L249,113.9z M453.9,14.3L453.9,14.3L453.9,14.3L453.9,14.3z M358.6,209
		c14.6,0,26.7,11.2,28.2,25.5c0.2,0.9,0.2,1.9,0.2,2.8c0,0.9,0,1.9-0.2,2.8c-1.4,14.3-13.5,25.5-28.2,25.5H44
		c-15.6,0-28.3-12.7-28.3-28.3S28.5,209,44,209H358.6z"/>
	<path d="M333.1,229.5c2-6.6,6.4-12.1,12.3-15.7h-24.5C326.7,217.2,331.1,222.7,333.1,229.5z"/>
	<path d="M333.1,245.2c-2,6.6-6.4,12.1-12.3,15.7h24.5C339.4,257.5,335,252,333.1,245.2z"/>
	<path d="M280.4,245.2c-2,6.6-6.4,12.1-12.3,15.7h24.4C286.7,257.5,282.3,252,280.4,245.2z"/>
	<path d="M280.4,229.5c2-6.6,6.4-12.1,12.3-15.7h-24.5C274,217.2,278.4,222.7,280.4,229.5z"/>
	<path d="M227.7,229.5c2-6.6,6.4-12.1,12.3-15.7h-24.5C221.3,217.2,225.7,222.7,227.7,229.5z"/>
	<path d="M227.7,245.2c-2,6.6-6.4,12.1-12.3,15.7H240C234,257.5,229.6,252,227.7,245.2z"/>
	<path d="M175,245.2c-2,6.6-6.4,12.1-12.3,15.7h24.4C181.3,257.5,176.9,252,175,245.2z"/>
	<path d="M175,229.5c2-6.6,6.4-12.1,12.3-15.7h-24.5C168.6,217.2,173,222.7,175,229.5z"/>
	<path d="M122.4,229.5c2-6.6,6.4-12.1,12.3-15.7h-24.5C115.9,217.2,120.3,222.7,122.4,229.5z"/>
	<path d="M122.4,245.2c-2,6.6-6.4,12.1-12.3,15.7h24.5C128.6,257.5,124.2,252,122.4,245.2z"/>
	<path d="M69.7,245.2c-2,6.6-6.4,12.1-12.3,15.7h24.4C76,257.5,71.6,252,69.7,245.2z"/>
	<path d="M69.7,229.5c2-6.6,6.4-12.1,12.3-15.7H57.4C63.2,217.2,67.6,222.7,69.7,229.5z"/>
	<path d="M336.6,237.3c0,12.6,10.2,22.8,22.8,22.8c12.6,0,22.8-10.2,22.8-22.8c0-12.6-10.2-22.8-22.8-22.8
		C346.8,214.5,336.6,224.7,336.6,237.3z"/>
	<path d="M283.9,237.3c0,12.6,10.2,22.8,22.8,22.8c12.6,0,22.8-10.2,22.8-22.8c0-12.6-10.2-22.8-22.8-22.8
		C294.1,214.5,283.9,224.7,283.9,237.3z"/>
	<path d="M231.2,237.3c0,12.6,10.2,22.8,22.8,22.8s22.8-10.2,22.8-22.8c0-12.6-10.2-22.8-22.8-22.8S231.2,224.7,231.2,237.3z"/>
	<path d="M178.5,237.3c0,12.6,10.2,22.8,22.8,22.8s22.8-10.2,22.8-22.8c0-12.6-10.2-22.8-22.8-22.8S178.5,224.7,178.5,237.3z"/>
	<path d="M125.8,237.3c0,12.6,10.2,22.8,22.8,22.8c12.6,0,22.8-10.2,22.8-22.8c0-12.6-10.2-22.8-22.8-22.8
		C136,214.5,125.8,224.7,125.8,237.3z"/>
	<path d="M73.1,237.3c0,12.6,10.2,22.8,22.8,22.8s22.8-10.2,22.8-22.8c0-12.6-10.2-22.8-22.8-22.8S73.1,224.7,73.1,237.3z"/>
	<path d="M66.1,237.3c0-12.6-10.2-22.8-22.8-22.8s-22.8,10.2-22.8,22.8c0,12.6,10.2,22.8,22.8,22.8S66.1,249.9,66.1,237.3z"/>
</g>
</svg>
