<?xml version="1.0" encoding="utf-8"?>
<!-- Generator: Adobe Illustrator 21.0.0, SVG Export Plug-In . SVG Version: 6.00 Build 0)  -->
<svg version="1.1" id="Layer_1" xmlns="http://www.w3.org/2000/svg" xmlns:xlink="http://www.w3.org/1999/xlink" x="0px" y="0px"
	 viewBox="0 -150 599 592.3" style="enable-background:new 0 0 599 292.3;" xml:space="preserve">
<g>
	<path d="M543.7,76.4c-3.8-0.4-7.8-0.7-12-0.9c-0.1-3.4-0.6-6.9-1.3-10.6c0,0-19.7-8.7-48.2-8.7c-2.7,0-5.5,0-8.1,0.3
		c-0.1-4.4-0.6-9-1.3-13.7c0,0-19.7-13-48.2-13c-5.3,0-10.8,0.4-16.5,1.5c-0.1-0.7-0.1-1.6-0.3-2.4c0,0-19.7-15.4-48.2-15.4
		c-4.9,0-10.2,0.4-15.5,1.5C338.8,11.1,321.2,0,297.6,0c-14,0-30.1,3.8-47.1,15.7H110.8l-7.7,6.2H65.5v30.7l-6.9,5.6v117.2l6.9,5.6
		v21.9H44.7C20,202.9,0,222.9,0,247.6v0c0,24.7,20,44.7,44.7,44.7h263.7c24.7,0,44.7-20,44.7-44.7v0c0-21.9-15.8-40.1-36.5-43.9
		c2.1-1.4,4.7-3.2,7.7-5.3c19.7-11.2,37.8-12.1,52.3-9.3v0.9c0,0,14.3-6.4,31.9-18.9c0.1-0.1,0.2-0.2,0.4-0.3
		c8.9-3.7,17.5-5.6,25.3-5.9v1.5c0,0,31-10.2,58.2-29.4c4.3-0.6,8.9-0.7,12.7-0.6h0.1h0.3l2.2-0.4c30.7-39.6,91.2-46,91.2-46
		S576.4,79.9,543.7,76.4z M531.5,80.4c0,1.2-0.1,2.4-0.4,3.5C531.2,82.7,531.3,81.6,531.5,80.4z M523.3,105.5
		c0.3-0.4,0.4-0.9,0.7-1.3c0.3-0.4,0.6-1,0.9-1.6c0.3-0.6,0.6-1.2,0.9-1.8c0.3-0.4,0.4-0.9,0.7-1.5c0-0.1,0.1-0.3,0.1-0.4
		c0.1-0.3,0.3-0.6,0.4-1c0.3-0.6,0.6-1.3,0.7-1.9c0.1-0.4,0.4-1,0.6-1.6c0.1-0.6,0.4-1.2,0.6-1.6c0.1-0.6,0.3-1,0.4-1.6
		c0.1-0.6,0.3-1.2,0.4-1.8c0.1-0.6,0.3-1.2,0.4-1.8c0.1-0.6,0.3-1.2,0.3-1.8c0.1-0.4,0.1-1,0.3-1.5h0.1c3.8,0.1,7.7,0.4,11.5,0.9
		c7.8,0.9,15.2,2.1,21.6,3.5c-14.1,4.6-30.6,12-45.2,23.2c0-0.1,0.1-0.1,0.1-0.2c0.3-0.4,0.7-1,1-1.5c0.7-1,1.3-1.9,2.1-3
		c0.3-0.4,0.6-1,0.9-1.5C523.2,105.6,523.3,105.6,523.3,105.5z M258.4,20.8c1-0.6,2.1-1.3,3.1-1.9c11.7-6.8,23.6-10.2,35.9-10.2
		c15.1,0,27.5,5.2,34.9,9.3c1.9,1,3.7,2.1,4.9,3c0.1,1.5,0.3,3.1,0.4,4.6c2.4,31.2-3.7,62.1-17.9,92.2c-2.7,5.8-5.6,11.5-8.9,17.1
		c-2.4,4.1-4.9,8.1-7.5,12.3c-0.9,1.3-1.8,2.7-2.7,4c-0.9,1.2-1.8,2.5-2.7,3.7c-0.6,0.7-1,1.5-1.5,2.1c-0.9,1.3-1.9,2.5-2.8,3.7
		l-0.1,0.1l-0.1,0.1c-0.9,1.2-1.8,2.2-2.5,3.3c-0.9,1-1.6,2.1-2.5,3.1l-0.4,0.4c-0.4,0.6-0.9,1-1.3,1.6c-0.4,0.6-0.9,1-1.3,1.6
		c-2.1,2.4-3.8,4.4-5.5,6.4c-0.9,0.9-1.6,1.9-2.5,2.8l-0.1,0.1l-0.4,0.4l-0.4,0.6c-0.4,0.4-0.7,0.9-1.2,1.3l-1,1l-0.7,0.7
		c-0.3,0.3-0.6,0.6-0.9,0.9c-1.8,1.8-3.5,3.7-5.6,5.6c-0.6,0.6-1.2,1.2-1.8,1.8l-0.7,0.7c-0.3,0.3-0.6,0.6-0.9,0.7
		c-0.7,0.6-1.3,1.3-2.1,1.9l-0.3,0.3c-0.9,0.9-1.8,1.6-2.7,2.4V20.8z M103.9,200.8l-8.9-7.2l-20.7-16.8l-6.9-5.6V62.4l6.9-5.6
		L95,39.9l8.9-7.2l10-8.1h135.8v178.3H106.4L103.9,200.8z M335.4,247.6c0,14.9-12.1,27-27,27H44.7c-14.9,0-27-12.1-27-27
		c0-14.9,12.1-27,27-27h263.7C323.3,220.6,335.4,232.7,335.4,247.6z M364.5,147.8c-15.8,20.2-33.5,34.9-45.2,43.4l0.3-30.6l0.1-23.2
		c17.4-30.7,30.4-69.4,26.7-113.8c4.4-0.9,8.7-1.3,13.2-1.3c18.3,0,32.7,7.2,39,11.1c0.3,0.1,0.4,0.3,0.7,0.4
		c0.3,2.8,0.4,5.6,0.6,8.4c1.2,24.8-3.7,48.9-14.5,71.7c-2.7,5.5-5.6,10.9-8.9,16.3C373.1,136.1,368.9,142,364.5,147.8z
		 M434.1,136.4c-2.8,3.3-6.1,6.6-9.6,10c-14,13.4-28.8,23-39,29v-42.7c14.9-25,25.4-56,23.2-92.6c5.2-1,10.5-1.5,15.8-1.5
		c18.9,0,33.7,6.5,39.9,9.8c0.3,3.1,0.6,6.1,0.6,9c0.1,3,0,6.1-0.1,9c-1,20.8-8.4,40.6-21.9,59.1
		C440.3,129.1,437.4,132.8,434.1,136.4z M513.6,104.3c-2.5,3.7-5.3,7.1-8.6,10.3c-18.3,18.9-46.2,32.2-61.8,38.7v-13.9
		c16.3-19.2,29.6-44,30.9-74.2c2.7-0.1,5.5-0.3,8.3-0.3c18.6,0,33.4,4,40.3,6.4c0.1,1.3,0.3,2.5,0.3,3.8c0.1,3-0.1,5.9-0.6,8.9
		C521,91.3,517.9,98.1,513.6,104.3z"/>
	<g>
		<path d="M44.3,239.3c4.6,0,8.3,3.7,8.3,8.3c0,4.6-3.7,8.3-8.3,8.3s-8.3-3.7-8.3-8.3C36,243,39.7,239.3,44.3,239.3 M44.3,221.5
			c-14.4,0-26,11.7-26,26c0,14.4,11.7,26,26,26s26-11.7,26-26C70.4,233.2,58.7,221.5,44.3,221.5L44.3,221.5z"/>
		<path d="M97,239.3c4.6,0,8.3,3.7,8.3,8.3c0,4.6-3.7,8.3-8.3,8.3c-4.6,0-8.3-3.7-8.3-8.3C88.7,243,92.4,239.3,97,239.3 M97,221.5
			c-14.4,0-26,11.7-26,26c0,14.4,11.7,26,26,26c14.4,0,26-11.7,26-26C123,233.2,111.4,221.5,97,221.5L97,221.5z"/>
		<path d="M149.7,239.3c4.6,0,8.3,3.7,8.3,8.3c0,4.6-3.7,8.3-8.3,8.3s-8.3-3.7-8.3-8.3C141.4,243,145.1,239.3,149.7,239.3
			 M149.7,221.5c-14.4,0-26,11.7-26,26c0,14.4,11.7,26,26,26c14.4,0,26-11.7,26-26C175.7,233.2,164.1,221.5,149.7,221.5L149.7,221.5
			z"/>
		<g>
			<path d="M202.4,239.3c4.6,0,8.3,3.7,8.3,8.3c0,4.6-3.7,8.3-8.3,8.3c-4.6,0-8.3-3.7-8.3-8.3C194,243,197.8,239.3,202.4,239.3
				 M202.4,221.5c-14.4,0-26,11.7-26,26c0,14.4,11.7,26,26,26c14.4,0,26-11.7,26-26C228.4,233.2,216.7,221.5,202.4,221.5
				L202.4,221.5z"/>
		</g>
		<path d="M255,239.3c4.6,0,8.3,3.7,8.3,8.3c0,4.6-3.7,8.3-8.3,8.3s-8.3-3.7-8.3-8.3C246.7,243,250.4,239.3,255,239.3 M255,221.5
			c-14.4,0-26,11.7-26,26c0,14.4,11.7,26,26,26c14.4,0,26-11.7,26-26C281.1,233.2,269.4,221.5,255,221.5L255,221.5z"/>
		<path d="M307.7,239.3c4.6,0,8.3,3.7,8.3,8.3c0,4.6-3.7,8.3-8.3,8.3c-4.6,0-8.3-3.7-8.3-8.3C299.4,243,303.1,239.3,307.7,239.3
			 M307.7,221.5c-14.4,0-26,11.7-26,26c0,14.4,11.7,26,26,26s26-11.7,26-26C333.7,233.2,322.1,221.5,307.7,221.5L307.7,221.5z"/>
	</g>
</g>
</svg>
