<?xml version="1.0" encoding="utf-8"?>
<!-- Generator: Adobe Illustrator 21.0.0, SVG Export Plug-In . SVG Version: 6.00 Build 0)  -->
<svg version="1.1" id="Layer_1" xmlns="http://www.w3.org/2000/svg" xmlns:xlink="http://www.w3.org/1999/xlink" x="0px" y="0px"
	 viewBox="0 0 380 380" style="enable-background:new 0 0 380 380;" xml:space="preserve">
<g>
	<path d="M255,309.6V305l46.3,16L255,149.5l-0.7-3L222.6,33c-1.9-6.7-7.9-11.3-14.8-11.3h-33.6c-6.9,0-13,4.6-14.8,11.3l-31.6,113.5
		l-0.7,3L80.7,321l46.3-16v4.6c0,13.6,11,24.6,24.6,24.6h78.8C244,334.2,255,323.2,255,309.6z M172.1,318
		c-10.4,0-18.9-8.5-18.9-18.9V149.5l0.7-3l21.8-96.2c1.1-5,5.6-8.6,10.7-8.6h9c5.2,0,9.6,3.6,10.7,8.6l21.8,96.2l0.7,3v149.6
		c0,10.4-8.5,18.9-18.9,18.9H172.1z"/>
	<g>
		<circle cx="191" cy="289.5" r="23.5"/>
		<circle cx="191" cy="230.5" r="19.5"/>
		<circle cx="191" cy="177.6" r="15.6"/>
		<circle cx="191" cy="126.6" r="11.6"/>
		<circle cx="191" cy="85.6" r="7.7"/>
	</g>
</g>
</svg>
