<?xml version="1.0" encoding="UTF-8" standalone="no"?>
<svg
   xmlns:dc="http://purl.org/dc/elements/1.1/"
   xmlns:cc="http://creativecommons.org/ns#"
   xmlns:rdf="http://www.w3.org/1999/02/22-rdf-syntax-ns#"
   xmlns:svg="http://www.w3.org/2000/svg"
   xmlns="http://www.w3.org/2000/svg"
   xml:space="preserve"
   viewBox="-50 0 519.99999 519.29999"
   y="0px"
   x="0px"
   id="Layer_1"
   version="1.1"><metadata
     id="metadata9"><rdf:RDF><cc:Work
         rdf:about=""><dc:format>image/svg+xml</dc:format><dc:type
           rdf:resource="http://purl.org/dc/dcmitype/StillImage" /><dc:title></dc:title></cc:Work></rdf:RDF></metadata><defs
     id="defs7" /><path
     id="path3"
     d="m 299.7,46.6 0,43.5 -61.1,29.8 -89.4,0 L 88.4,90.1 88.4,46.6 112.1,11.5 95.2,0.1 68,40.5 l 0,62.7 55.5,27.1 0,125.6 L 0,379.4 l 16.3,0 0,29.6 17.8,0 c -2.2,5.9 -3.5,14.7 -3.5,27.6 0,45.7 34.7,82.7 34.7,82.7 0,0 34.7,-37 34.7,-82.7 0,-12.9 -1.2,-21.6 -3.5,-27.6 l 17.8,0 0,-29.6 30.7,0 0,29.6 17.8,0 c -2.2,5.9 -3.5,14.7 -3.5,27.6 0,45.7 34.7,82.7 34.7,82.7 0,0 34.7,-37 34.7,-82.7 0,-12.9 -1.2,-21.6 -3.5,-27.6 l 17.8,0 0,-29.6 30.6,0 0,29.6 17.8,0 c -2.2,5.9 -3.5,14.7 -3.5,27.6 0,45.7 34.7,82.7 34.7,82.7 0,0 34.7,-37 34.7,-82.7 0,-12.9 -1.2,-21.6 -3.5,-27.6 l 17.8,0 0,-29.6 16.4,0 -123.5,-123.5 0,-125.6 55.7,-27.2 0,-62.7 L 292.8,0 275.9,11.4 299.7,46.6 Z m -228,364.3 c 3.3,0 9,-0.2 10.2,0.4 0,0 3.9,3.5 3.9,25.1 0,24.1 -11.4,45.9 -20.4,59.2 -9,-13.3 -20.4,-35.1 -20.4,-59.2 0,-21.8 3.9,-25.1 3.9,-25.1 1.2,-0.8 6.9,-0.6 10.2,-0.4 2,0 4.1,0.2 6.3,0.2 2.2,0 4.4,0 6.3,-0.2 z m 28.4,-30.4 0,14.3 -69.5,0 0,-14.3 69.5,0 z m 100.2,30.4 c 3.3,0 9,-0.2 10.2,0.4 0,0 3.9,3.5 3.9,25.1 0,24.1 -11.4,45.9 -20.4,59.2 -9,-13.3 -20.4,-35.1 -20.4,-59.2 0,-21.8 3.9,-25.1 3.9,-25.1 1.2,-0.8 6.9,-0.6 10.2,-0.4 2,0 4.1,0.2 6.3,0.2 2.2,0 4.5,0 6.3,-0.2 z m 28.4,-30.4 0,14.3 -69.4,0 0,-14.3 69.4,0 z m 100.2,30.4 c 3.3,0 9,-0.2 10.2,0.4 0,0 3.9,3.5 3.9,25.1 0,24.1 -11.4,45.9 -20.4,59.2 -9,-13.3 -20.4,-35.1 -20.4,-59.2 0,-21.8 3.9,-25.1 3.9,-25.1 1.2,-0.8 6.9,-0.6 10.2,-0.4 2,0 4.1,0.2 6.3,0.2 2.2,0 4.5,0 6.3,-0.2 z m 28.4,-30.4 0,14.3 -69.4,0 0,-14.3 69.4,0 z m -104.7,-113.4 96,96 -309.2,0 96,-96 117.2,0 z m -4.5,-130.7 0,112.4 -108.2,0 0,-112.3 108.2,0 z" /></svg>
