<?xml version="1.0" encoding="utf-8"?>
<!-- Generator: Adobe Illustrator 21.0.0, SVG Export Plug-In . SVG Version: 6.00 Build 0)  -->
<svg version="1.1" id="Layer_1" xmlns="http://www.w3.org/2000/svg" xmlns:xlink="http://www.w3.org/1999/xlink" x="0px" y="0px"
	 viewBox="0 0 154.4 149.3" style="enable-background:new 0 0 154.4 149.3;" xml:space="preserve">
<g>
	<path d="M148.9,65.1l2.8-10.5l-20.5-20.5l-0.5-0.6L115.8,7.7h-10.9L97.2,0L68.4,7.7H38.6l-5.5,9.4l-10.5,2.8l-7.2,26.8l-0.5,2l0,0
		l0,0L0,74.5L5.5,84L2.7,94.5l14.7,14.7l1.5,1.5l4.9,4.9l6.6,11.9l1.5,2.5l6.7,11.5h10.8l6.1,6.1l1.7,1.7l2.8-0.8l0,0l26-7h29.8
		l5.5-9.5l10.5-2.8l0.1-0.4l0.6-2.3l0,0l7-26.1l14.9-25.8L148.9,65.1z M69.5,11.5L96,4.4l6.1,6.1l1.2,1.2h0.1l1.8,15.9l-15.6,6.8
		l-6.1,9.3L43.7,58.5L35,44.2l31.7-10.8L69.5,11.5z M25.8,23.2l8.3-2.2l1.6-0.4l0.8-1.4l4.3-7.4h24.6L63,30.6L19.8,45.3L25.8,23.2z
		 M4.5,74.6l13.8-23.8l0.3-0.5l0.1-0.5l12.5-4.2l10.9,17.9l14.2-5.3l-4.9,13.2l-43,10L4.5,74.6z M7,93.4l2.2-8.1l45.2-10.6l6.8-18.4
		l18.5-6.9l-24.2,37l-17.4,8.2v0.1l-18.8,11L7,93.4z M31.8,121.8l-4.7-8.1l-0.3-0.5l-0.4-0.4l-4.2-4.2l14.6-8.6L31.8,121.8z
		 M48.9,137.5h-8l-6.1-10.7l6.9-29.5l16.6-7.8l34-52l13.4-5.8l1.3,11.2l-4.1,25.3l-47.7,41.7L48.9,137.5z M58.1,144.5l-5.5-5.5
		l6.1-26.9l43-37.6L98,97.2L58.1,144.5z M85.4,137.5l-0.5,0.1l-20.4,5.5l37.3-44.3l9.1-55.8l-3.6-31.3h6.1l13.8,23.8l0.3,0.5
		l0.4,0.4l0.4,0.4l-4,19.8L105,91.4l-5.6,46.1H85.4z M120.2,128.2l-1.6,0.4l-0.8,1.4l-4.3,7.5h-10.1l5.4-44.9l12.7-23l-1.7,8.3
		l8.5,48L120.2,128.2z M136,98.4l-0.3,0.5l-0.1,0.5l-4.8,17.8L123.9,78l7.7-37.9l15.6,15.6L145,64l-0.4,1.6l0.8,1.4l4.3,7.5
		L136,98.4z"/>
</g>
</svg>
