<?xml version="1.0" encoding="utf-8"?>
<!-- Generator: Adobe Illustrator 21.0.0, SVG Export Plug-In . SVG Version: 6.00 Build 0)  -->
<svg version="1.1" id="Layer_1" xmlns="http://www.w3.org/2000/svg" xmlns:xlink="http://www.w3.org/1999/xlink" x="0px" y="0px"
	 viewBox="0 0 380 380" style="enable-background:new 0 0 380 380;" xml:space="preserve">
<path d="M332.9,261h-0.4v-97.5L288,91H92l-44.5,72.5V261h-0.4L24,291v30h332v-30L332.9,261z M120.3,110h139.3l11.7,19H108.7
	L120.3,110z M87.5,163.5L97,148h186l9.5,15.5v3.5h-205V163.5z M87.5,186h205v19h-205V186z M87.5,224h205v19h-205V224z M70.8,314.3
	c-12.8,0-23.3-10.4-23.3-23.3c0-12.8,10.4-23.3,23.3-23.3S94,278.2,94,291C94,303.8,83.6,314.3,70.8,314.3z M130.4,314.3
	c-12.8,0-23.3-10.4-23.3-23.3c0-12.8,10.4-23.3,23.3-23.3s23.3,10.4,23.3,23.3C153.6,303.8,143.2,314.3,130.4,314.3z M190,314.3
	c-12.8,0-23.3-10.4-23.3-23.3c0-12.8,10.4-23.3,23.3-23.3s23.3,10.4,23.3,23.3C213.3,303.8,202.8,314.3,190,314.3z M249.6,314.3
	c-12.8,0-23.3-10.4-23.3-23.3c0-12.8,10.4-23.3,23.3-23.3s23.3,10.4,23.3,23.3C272.9,303.8,262.5,314.3,249.6,314.3z M309.3,314.3
	c-12.8,0-23.3-10.4-23.3-23.3c0-12.8,10.4-23.3,23.3-23.3s23.3,10.4,23.3,23.3C332.5,303.8,322.1,314.3,309.3,314.3z"/>
</svg>
