<?xml version="1.0" encoding="utf-8"?>
<!-- Generator: Adobe Illustrator 21.0.0, SVG Export Plug-In . SVG Version: 6.00 Build 0)  -->
<svg version="1.1" id="Layer_1" xmlns="http://www.w3.org/2000/svg" xmlns:xlink="http://www.w3.org/1999/xlink" x="0px" y="0px"
	 viewBox="0 0 260.5 30.8" style="enable-background:new 0 0 260.5 30.8;" xml:space="preserve">
<style type="text/css">
	.st0{fill:#19120E;}
</style>
<g>
	<path d="M92.1,116.5v0.4h0.4L92.1,116.5z"/>
</g>
<path class="st0" d="M256.9,24.3L234.8,2.1c-0.9,0-1.7,0.2-2.5,0.5c-0.1,0.1-0.3,0.1-0.4,0.2c-0.5,0.3-0.8,0.6-1.1,0.9
	c-1.3,1.4-1.5,3.1-1.4,4.5l-3.2,2c-2-1-5.5-2.7-7.7-2.9c-0.4-0.4-1-1.5-1.5-2.3c-1.5-2.5-3.6-4.4-7.1-4.6c-2.9-0.2-6.4,2.1-8.7,5.3
	c-1.9-1-5-2.3-7.5-1.8c-1.1,0.2-4.3,2-7.2,3.7L181.6,4l-5.4,2.4c-1.3-2.1-3.8-5.2-7-5.1c-2.4,0.1-5.6,1.9-6.3,2.3l-0.5,0.3L159.7,9
	c-1.1,0.8-3.5,2.2-5.4,2.3c-0.1-0.3-0.2-0.9-0.2-1.2c-0.2-1.3-0.3-3-1.7-4c-0.5-0.4-1.5-0.8-2.9-0.6c-3.3,0.6-7.5,0.2-7.6,0.2h-0.1
	c-5.4-0.2-8.1,0.3-9.5,0.9c-0.5-1.1-1.1-2.1-2.4-2.3c-0.4-0.1-1.8-0.3-21.3,4.5c-0.8,0-4.7,0.2-7.1-0.3c-0.7-1.8-2.6-3.4-12.4-6
	c-5.4-1.4-9.6-1.1-11.5,1c-0.9,1-1.2,2.4-0.7,3.6c0.1,0.2,0,0.3,0,0.3c-0.4,0.5-1.7,1-3.1,1h-9.9l-3.4-1.3c-1.3-1-5.6-4-7.8-4.7
	c-2.5-0.7-9.1-0.2-10.4-0.1h-0.3L28,7.8l-1.3-0.5l-4.2-1.5l-3.1,3.1L0.3,28v2.8h259.8l0.4-0.4v-2.1L256.9,24.3z M24.1,27H7.5
	L24,10.6l2,0.7L24.1,27z M28.2,27.1L30,11.7l13.6-5.3c0.5,0,1.1-0.1,1.7-0.1l3.3,20.8H28.2z M56.4,27.1h-3.8L49.3,6.2
	c1.3,0,2.4,0.1,3,0.2c1.1,0.3,4.5,2.6,6.6,4.1l0.2,0.2l1,0.4L56.4,27.1z M70.1,27h-9.5L64,12.4h6.1V27z M73.9,27V12.4h0.3
	c2.1,0,5-0.7,6.4-2.7L87.9,27H73.9z M97.4,27h-5.2L83.1,5.6c1.3,0,3,0.1,5.4,0.7c5.5,1.5,7.9,2.5,8.9,3.1V27z M101.6,27.1V12.5
	c3.1,0.5,7.7,0.2,7.9,0.2h0.4c1-0.2,2-0.5,3-0.7l4.3,15.1H101.6z M127.6,27h-6.3l-4.5-16c5.5-1.3,10.4-2.4,12.4-2.7
	c0,0.2,0,0.3,0.1,0.4c0.2,0.5,0.5,1.1,0.9,1.6L127.6,27z M131.6,27l2.5-16.4c0.1-0.1,0.2-0.3,0.3-0.4c1.2-0.4,4.5-0.6,7.6-0.5
	c0.6,0.1,4.6,0.4,8.1-0.1l3.1,17.4H131.6z M171.8,27.1h-14.7L155,15.4c3.8-0.4,7.4-3.1,7.8-3.4l0.3-0.3l2.6-4.8
	c1.2-0.7,3-1.4,3.9-1.5c1.1,0,2.8,2.1,3.9,4.2L171.8,27.1z M175.9,27.1l1.6-16.7l3.8-1.7l3,2.2l5.6,16.2H175.9z M198.3,27.1h-4.2
	l-5.5-15.9c2.6-1.6,5.4-3.1,6-3.3c1.2-0.2,3.6,0.8,5.3,1.7L198.3,27.1z M202.3,27l1.6-18.2c2.3-2.9,4.9-5.7,5.9-5.9
	c1.5,0.1,2.8,2.4,3.9,4.3c0.7,1.2,1.4,2.3,2.2,3.1l4.3,16.7H202.3z M223.9,25.2L220.5,12c1.3,0.5,2.9,1.3,4.3,2L223.9,25.2z
	 M227.7,27.1l1.1-13.7l2.4-1.5l8.1,15.2H227.7z M243.8,27L233.3,7.4c0-0.3,0.1-0.6,0.3-0.8L254,27H243.8z"/>
</svg>
