<?xml version="1.0" ?><!DOCTYPE svg  PUBLIC '-//W3C//DTD SVG 1.1//EN'  'http://www.w3.org/Graphics/SVG/1.1/DTD/svg11.dtd'><svg  id="Layer_1" style="enable-background:new 0 0 60 60;" version="1.1" viewBox="0 0 60 60" xmlns="http://www.w3.org/2000/svg" xmlns:xlink="http://www.w3.org/1999/xlink"><style type="text/css">

</style><g><path class="st0" d="M14.146,45.834c1.406,1.402,2.26,3.307,2.266,5.427c-0.006,2.116-0.859,4.019-2.264,5.416   l-0.002,0.003c-1.402,1.396-3.318,2.25-5.447,2.25s-4.037-0.855-5.441-2.253C1.859,55.279,1,53.379,1,51.261   c0-2.12,0.859-4.028,2.258-5.429v0.002c1.404-1.398,3.312-2.255,5.441-2.255S12.74,44.439,14.146,45.834z M14.146,45.832v0.002   c0.002,0,0.002,0,0.002,0L14.146,45.832z M3.258,56.68c0,0,0,0,0-0.003c-0.002,0-0.002,0-0.002,0L3.258,56.68z M1.006,20.721   v11.078c7.23,0.002,14.068,2.843,19.186,7.969c5.117,5.108,7.945,11.957,7.957,19.214h0.004V59h11.121   c-0.01-10.55-4.299-20.104-11.232-27.044C21.109,25.021,11.555,20.729,1.006,20.721z M1.025,1v11.071   C26.871,12.088,47.881,33.13,47.898,59H59c-0.006-15.988-6.506-30.475-17.008-40.984C31.486,7.511,17.008,1.006,1.025,1z" id="RSS_2_"/></g></svg>
